<svg id="visual" viewBox="0 0 900 600" width="900" height="600" xmlns="http://www.w3.org/2000/svg" xmlns:xlink="http://www.w3.org/1999/xlink" version="1.1"><rect width="900" height="600" fill="#001829"></rect><g><g transform="translate(339 431)"><path d="M0 -37.4L32.4 -18.7L32.4 18.7L0 37.4L-32.4 18.7L-32.4 -18.7Z" fill="#297EA6"></path></g><g transform="translate(115 467)"><path d="M0 -34L29.4 -17L29.4 17L0 34L-29.4 17L-29.4 -17Z" fill="#297EA6"></path></g><g transform="translate(429 586)"><path d="M0 -26L22.5 -13L22.5 13L0 26L-22.5 13L-22.5 -13Z" fill="#297EA6"></path></g><g transform="translate(346 586)"><path d="M0 -17L14.7 -8.5L14.7 8.5L0 17L-14.7 8.5L-14.7 -8.5Z" fill="#297EA6"></path></g><g transform="translate(115 255)"><path d="M0 -32L27.7 -16L27.7 16L0 32L-27.7 16L-27.7 -16Z" fill="#297EA6"></path></g><g transform="translate(77 4)"><path d="M0 -27L23.4 -13.5L23.4 13.5L0 27L-23.4 13.5L-23.4 -13.5Z" fill="#297EA6"></path></g><g transform="translate(117 355)"><path d="M0 -19L16.5 -9.5L16.5 9.5L0 19L-16.5 9.5L-16.5 -9.5Z" fill="#297EA6"></path></g><g transform="translate(751 45)"><path d="M0 -26L22.5 -13L22.5 13L0 26L-22.5 13L-22.5 -13Z" fill="#297EA6"></path></g><g transform="translate(742 282)"><path d="M0 -20L17.3 -10L17.3 10L0 20L-17.3 10L-17.3 -10Z" fill="#297EA6"></path></g><g transform="translate(627 130)"><path d="M0 -19L16.5 -9.5L16.5 9.5L0 19L-16.5 9.5L-16.5 -9.5Z" fill="#297EA6"></path></g><g transform="translate(253 418)"><path d="M0 -32L27.7 -16L27.7 16L0 32L-27.7 16L-27.7 -16Z" fill="#297EA6"></path></g><g transform="translate(535 56)"><path d="M0 -36L31.2 -18L31.2 18L0 36L-31.2 18L-31.2 -18Z" fill="#297EA6"></path></g><g transform="translate(21 431)"><path d="M0 -29L25.1 -14.5L25.1 14.5L0 29L-25.1 14.5L-25.1 -14.5Z" fill="#297EA6"></path></g><g transform="translate(318 307)"><path d="M0 -25L21.7 -12.5L21.7 12.5L0 25L-21.7 12.5L-21.7 -12.5Z" fill="#297EA6"></path></g><g transform="translate(522 396)"><path d="M0 -20L17.3 -10L17.3 10L0 20L-17.3 10L-17.3 -10Z" fill="#297EA6"></path></g><g transform="translate(885 439)"><path d="M0 -29L25.1 -14.5L25.1 14.5L0 29L-25.1 14.5L-25.1 -14.5Z" fill="#297EA6"></path></g><g transform="translate(226 130)"><path d="M0 -29L25.1 -14.5L25.1 14.5L0 29L-25.1 14.5L-25.1 -14.5Z" fill="#297EA6"></path></g><g transform="translate(535 543)"><path d="M0 -27L23.4 -13.5L23.4 13.5L0 27L-23.4 13.5L-23.4 -13.5Z" fill="#297EA6"></path></g><g transform="translate(887 269)"><path d="M0 -34L29.4 -17L29.4 17L0 34L-29.4 17L-29.4 -17Z" fill="#297EA6"></path></g><g transform="translate(122 72)"><path d="M0 -29L25.1 -14.5L25.1 14.5L0 29L-25.1 14.5L-25.1 -14.5Z" fill="#297EA6"></path></g><g transform="translate(663 233)"><path d="M0 -23L19.9 -11.5L19.9 11.5L0 23L-19.9 11.5L-19.9 -11.5Z" fill="#297EA6"></path></g><g transform="translate(376 187)"><path d="M0 -27L23.4 -13.5L23.4 13.5L0 27L-23.4 13.5L-23.4 -13.5Z" fill="#297EA6"></path></g><g transform="translate(58 138)"><path d="M0 -15L13 -7.5L13 7.5L0 15L-13 7.5L-13 -7.5Z" fill="#297EA6"></path></g><g transform="translate(242 585)"><path d="M0 -24L20.8 -12L20.8 12L0 24L-20.8 12L-20.8 -12Z" fill="#297EA6"></path></g><g transform="translate(453 123)"><path d="M0 -20L17.3 -10L17.3 10L0 20L-17.3 10L-17.3 -10Z" fill="#297EA6"></path></g><g transform="translate(82 546)"><path d="M0 -34L29.4 -17L29.4 17L0 34L-29.4 17L-29.4 -17Z" fill="#297EA6"></path></g><g transform="translate(636 510)"><path d="M0 -24L20.8 -12L20.8 12L0 24L-20.8 12L-20.8 -12Z" fill="#297EA6"></path></g><g transform="translate(548 258)"><path d="M0 -33L28.6 -16.5L28.6 16.5L0 33L-28.6 16.5L-28.6 -16.5Z" fill="#297EA6"></path></g><g transform="translate(729 163)"><path d="M0 -36L31.2 -18L31.2 18L0 36L-31.2 18L-31.2 -18Z" fill="#297EA6"></path></g><g transform="translate(701 355)"><path d="M0 -21L18.2 -10.5L18.2 10.5L0 21L-18.2 10.5L-18.2 -10.5Z" fill="#297EA6"></path></g><g transform="translate(637 50)"><path d="M0 -30L26 -15L26 15L0 30L-26 15L-26 -15Z" fill="#297EA6"></path></g><g transform="translate(485 325)"><path d="M0 -34L29.4 -17L29.4 17L0 34L-29.4 17L-29.4 -17Z" fill="#297EA6"></path></g><g transform="translate(198 221)"><path d="M0 -29L25.1 -14.5L25.1 14.5L0 29L-25.1 14.5L-25.1 -14.5Z" fill="#297EA6"></path></g><g transform="translate(342 53)"><path d="M0 -36L31.2 -18L31.2 18L0 36L-31.2 18L-31.2 -18Z" fill="#297EA6"></path></g><g transform="translate(813 336)"><path d="M0 -35L30.3 -17.5L30.3 17.5L0 35L-30.3 17.5L-30.3 -17.5Z" fill="#297EA6"></path></g><g transform="translate(419 7)"><path d="M0 -34L29.4 -17L29.4 17L0 34L-29.4 17L-29.4 -17Z" fill="#297EA6"></path></g><g transform="translate(522 171)"><path d="M0 -35L30.3 -17.5L30.3 17.5L0 35L-30.3 17.5L-30.3 -17.5Z" fill="#297EA6"></path></g><g transform="translate(611 300)"><path d="M0 -24L20.8 -12L20.8 12L0 24L-20.8 12L-20.8 -12Z" fill="#297EA6"></path></g><g transform="translate(736 556)"><path d="M0 -30L26 -15L26 15L0 30L-26 15L-26 -15Z" fill="#297EA6"></path></g><g transform="translate(12 66)"><path d="M0 -16L13.9 -8L13.9 8L0 16L-13.9 8L-13.9 -8Z" fill="#297EA6"></path></g><g transform="translate(774 486)"><path d="M0 -26L22.5 -13L22.5 13L0 26L-22.5 13L-22.5 -13Z" fill="#297EA6"></path></g><g transform="translate(854 545)"><path d="M0 -34L29.4 -17L29.4 17L0 34L-29.4 17L-29.4 -17Z" fill="#297EA6"></path></g><g transform="translate(830 163)"><path d="M0 -34L29.4 -17L29.4 17L0 34L-29.4 17L-29.4 -17Z" fill="#297EA6"></path></g><g transform="translate(23 597)"><path d="M0 -36L31.2 -18L31.2 18L0 36L-31.2 18L-31.2 -18Z" fill="#297EA6"></path></g><g transform="translate(601 594)"><path d="M0 -24L20.8 -12L20.8 12L0 24L-20.8 12L-20.8 -12Z" fill="#297EA6"></path></g><g transform="translate(669 430)"><path d="M0 -20L17.3 -10L17.3 10L0 20L-17.3 10L-17.3 -10Z" fill="#297EA6"></path></g><g transform="translate(855 75)"><path d="M0 -30L26 -15L26 15L0 30L-26 15L-26 -15Z" fill="#297EA6"></path></g><g transform="translate(206 322)"><path d="M0 -32L27.7 -16L27.7 16L0 32L-27.7 16L-27.7 -16Z" fill="#297EA6"></path></g><g transform="translate(301 225)"><path d="M0 -36L31.2 -18L31.2 18L0 36L-31.2 18L-31.2 -18Z" fill="#297EA6"></path></g><g transform="translate(461 455)"><path d="M0 -28L24.2 -14L24.2 14L0 28L-24.2 14L-24.2 -14Z" fill="#297EA6"></path></g><g transform="translate(429 272)"><path d="M0 -18L15.6 -9L15.6 9L0 18L-15.6 9L-15.6 -9Z" fill="#297EA6"></path></g><g transform="translate(321 506)"><path d="M0 -35L30.3 -17.5L30.3 17.5L0 35L-30.3 17.5L-30.3 -17.5Z" fill="#297EA6"></path></g><g transform="translate(879 2)"><path d="M0 -28L24.2 -14L24.2 14L0 28L-24.2 14L-24.2 -14Z" fill="#297EA6"></path></g><g transform="translate(12 326)"><path d="M0 -26L22.5 -13L22.5 13L0 26L-22.5 13L-22.5 -13Z" fill="#297EA6"></path></g><g transform="translate(240 45)"><path d="M0 -31L26.8 -15.5L26.8 15.5L0 31L-26.8 15.5L-26.8 -15.5Z" fill="#297EA6"></path></g></g></svg>