<svg id="visual" viewBox="0 0 900 600" width="900" height="600" xmlns="http://www.w3.org/2000/svg" xmlns:xlink="http://www.w3.org/1999/xlink" version="1.1"><path d="M0 109L180 109L360 67L540 91L720 79L900 97L900 0L720 0L540 0L360 0L180 0L0 0Z" fill="#00cc8e"></path><path d="M0 331L180 319L360 217L540 223L720 223L900 307L900 95L720 77L540 89L360 65L180 107L0 107Z" fill="#00b388"></path><path d="M0 475L180 481L360 445L540 475L720 463L900 475L900 305L720 221L540 221L360 215L180 317L0 329Z" fill="#009b7f"></path><path d="M0 601L180 601L360 601L540 601L720 601L900 601L900 473L720 461L540 473L360 443L180 479L0 473Z" fill="#038373"></path></svg>